<svg id="Camada_1" data-name="Camada 1" xmlns="http://www.w3.org/2000/svg" viewBox="0 0 68.4 51.5"><defs><style>.cls-1{fill:#fff;}</style></defs><path class="cls-1" d="M80.79,47.89a1.55,1.55,0,0,0-.12.22,3.37,3.37,0,0,1-3.38,2.52c-1.4,0-2.8,0-4.2,0H32a3.47,3.47,0,0,1-3.5-2.06,3.37,3.37,0,0,1,2.7-4.73,10.87,10.87,0,0,1,1.14-.05c14.71,0,29.42,0,44.13,0,2.13,0,3.62.67,4.3,2.77Z" transform="translate(-12.39 -21.47)"/><path class="cls-1" d="M80.79,26.51l-.26.59a3.33,3.33,0,0,1-3,2.09H32.05a3.85,3.85,0,0,1-2.56-.77,3.42,3.42,0,0,1,2-6.06H76.6c2.43,0,3.27.56,4.19,2.8Z" transform="translate(-12.39 -21.47)"/><path class="cls-1" d="M80.79,69.26A3.57,3.57,0,0,1,77.93,72a5.29,5.29,0,0,1-.8,0H31.86a3.41,3.41,0,0,1-3.45-4.49,3.36,3.36,0,0,1,3.11-2.32h.86c14.69,0,29.38,0,44.08,0,2.12,0,3.61.66,4.33,2.72Z" transform="translate(-12.39 -21.47)"/><path class="cls-1" d="M12.39,26.07A4.59,4.59,0,1,1,17,30.64,4.59,4.59,0,0,1,12.39,26.07Z" transform="translate(-12.39 -21.47)"/><path class="cls-1" d="M17,63.79a4.59,4.59,0,1,1-4.56,4.61A4.61,4.61,0,0,1,17,63.79Z" transform="translate(-12.39 -21.47)"/><path class="cls-1" d="M16.9,51.79a4.57,4.57,0,1,1,4.66-4.5A4.57,4.57,0,0,1,16.9,51.79Z" transform="translate(-12.39 -21.47)"/></svg>